<?xml version="1.0" encoding="UTF-8"?>
<svg xmlns="http://www.w3.org/2000/svg" xmlns:xlink="http://www.w3.org/1999/xlink" width="200px" height="150px" viewBox="0 0 200 150" version="1.1">
<defs>
<clipPath id="clip1">
  <path d="M 25.039062 26.695312 L 174.992188 26.695312 L 174.992188 122 L 25.039062 122 Z M 25.039062 26.695312 "/>
</clipPath>
<clipPath id="clip2">
  <path d="M 39 113 L 118 113 L 118 123.445312 L 39 123.445312 Z M 39 113 "/>
</clipPath>
<clipPath id="clip3">
  <path d="M 36.765625 48.601562 L 163.265625 48.601562 L 163.265625 101.542969 L 36.765625 101.542969 Z M 36.765625 48.601562 "/>
</clipPath>
</defs>
<g id="surface1">
<rect x="0" y="0" width="200" height="150" style="fill:rgb(4.705882%,11.372549%,21.176471%);fill-opacity:1;stroke:none;"/>
<g clip-path="url(#clip1)" clip-rule="nonzero">
<path style=" stroke:none;fill-rule:nonzero;fill:rgb(97.647059%,80%,4.313725%);fill-opacity:1;" d="M 25.039062 121.578125 L 25.039062 26.625 L 174.992188 26.625 L 174.992188 121.578125 L 131.398438 121.578125 L 131.398438 116.804688 L 170.21875 116.804688 L 170.21875 31.398438 L 29.8125 31.398438 L 29.8125 113.199219 L 25.375 113.199219 L 25.375 121.578125 Z M 25.039062 121.578125 "/>
</g>
<g clip-path="url(#clip2)" clip-rule="nonzero">
<path style=" stroke:none;fill-rule:nonzero;fill:rgb(97.647059%,80%,4.313725%);fill-opacity:1;" d="M 44.761719 114.171875 L 44.351562 115.109375 C 44.0625 115.003906 43.777344 114.921875 43.492188 114.855469 C 43.207031 114.792969 42.933594 114.761719 42.671875 114.761719 C 42.230469 114.761719 41.875 114.851562 41.613281 115.035156 C 41.347656 115.21875 41.21875 115.449219 41.21875 115.730469 C 41.21875 115.972656 41.3125 116.164062 41.5 116.304688 C 41.691406 116.449219 41.925781 116.582031 42.207031 116.695312 C 42.488281 116.8125 42.796875 116.929688 43.125 117.042969 C 43.457031 117.160156 43.761719 117.3125 44.042969 117.492188 C 44.324219 117.675781 44.5625 117.90625 44.75 118.183594 C 44.941406 118.460938 45.035156 118.820312 45.035156 119.253906 C 45.035156 119.59375 44.972656 119.894531 44.851562 120.167969 C 44.726562 120.4375 44.546875 120.671875 44.304688 120.867188 C 44.058594 121.066406 43.757812 121.21875 43.394531 121.324219 C 43.035156 121.429688 42.609375 121.480469 42.125 121.480469 C 41.816406 121.480469 41.535156 121.460938 41.285156 121.417969 C 41.035156 121.375 40.8125 121.320312 40.613281 121.253906 C 40.410156 121.1875 40.234375 121.113281 40.085938 121.039062 C 39.933594 120.960938 39.804688 120.890625 39.699219 120.828125 L 40.203125 119.824219 C 40.484375 119.988281 40.796875 120.117188 41.144531 120.214844 C 41.488281 120.3125 41.800781 120.363281 42.082031 120.363281 C 42.222656 120.363281 42.398438 120.34375 42.605469 120.308594 C 42.8125 120.273438 43.011719 120.214844 43.199219 120.125 C 43.390625 120.039062 43.554688 119.917969 43.691406 119.773438 C 43.828125 119.625 43.898438 119.4375 43.894531 119.214844 C 43.894531 119.007812 43.84375 118.835938 43.734375 118.691406 C 43.625 118.546875 43.480469 118.421875 43.300781 118.308594 C 43.121094 118.203125 42.917969 118.101562 42.691406 118.015625 C 42.460938 117.929688 42.226562 117.835938 41.988281 117.742188 C 41.75 117.648438 41.515625 117.546875 41.285156 117.441406 C 41.058594 117.335938 40.855469 117.207031 40.675781 117.054688 C 40.496094 116.90625 40.351562 116.730469 40.242188 116.527344 C 40.132812 116.328125 40.078125 116.085938 40.078125 115.804688 C 40.078125 115.546875 40.132812 115.289062 40.238281 115.035156 C 40.34375 114.78125 40.5 114.558594 40.710938 114.359375 C 40.921875 114.164062 41.183594 114.007812 41.496094 113.886719 C 41.808594 113.765625 42.171875 113.707031 42.589844 113.707031 C 42.839844 113.707031 43.089844 113.726562 43.332031 113.769531 C 43.574219 113.8125 43.792969 113.859375 43.992188 113.910156 C 44.1875 113.964844 44.355469 114.015625 44.492188 114.066406 C 44.628906 114.113281 44.71875 114.148438 44.761719 114.171875 Z M 45.679688 119.179688 C 45.679688 118.867188 45.742188 118.566406 45.863281 118.285156 C 45.988281 118.003906 46.152344 117.757812 46.363281 117.550781 C 46.574219 117.34375 46.824219 117.179688 47.109375 117.054688 C 47.394531 116.933594 47.699219 116.871094 48.03125 116.871094 C 48.363281 116.871094 48.667969 116.933594 48.957031 117.054688 C 49.238281 117.179688 49.484375 117.34375 49.691406 117.550781 C 49.898438 117.757812 50.0625 118.003906 50.179688 118.285156 C 50.292969 118.566406 50.351562 118.863281 50.351562 119.179688 C 50.351562 119.496094 50.292969 119.796875 50.179688 120.078125 C 50.0625 120.359375 49.898438 120.605469 49.691406 120.816406 C 49.484375 121.027344 49.238281 121.195312 48.957031 121.316406 C 48.667969 121.441406 48.359375 121.503906 48.019531 121.503906 C 47.695312 121.503906 47.394531 121.445312 47.109375 121.332031 C 46.824219 121.222656 46.574219 121.0625 46.363281 120.859375 C 46.152344 120.65625 45.988281 120.410156 45.863281 120.125 C 45.742188 119.839844 45.679688 119.527344 45.679688 119.179688 Z M 46.574219 119.191406 C 46.574219 119.386719 46.613281 119.574219 46.6875 119.746094 C 46.761719 119.917969 46.863281 120.070312 46.992188 120.199219 C 47.121094 120.328125 47.273438 120.429688 47.445312 120.503906 C 47.617188 120.578125 47.800781 120.617188 48 120.617188 C 48.195312 120.617188 48.382812 120.578125 48.558594 120.503906 C 48.734375 120.429688 48.886719 120.328125 49.019531 120.199219 C 49.148438 120.070312 49.25 119.917969 49.328125 119.746094 C 49.40625 119.574219 49.445312 119.386719 49.445312 119.191406 C 49.445312 118.996094 49.40625 118.808594 49.328125 118.632812 C 49.25 118.457031 49.148438 118.304688 49.019531 118.171875 C 48.886719 118.042969 48.734375 117.941406 48.558594 117.867188 C 48.382812 117.792969 48.195312 117.757812 48 117.757812 C 47.800781 117.757812 47.617188 117.792969 47.445312 117.867188 C 47.273438 117.941406 47.121094 118.042969 46.992188 118.171875 C 46.863281 118.304688 46.761719 118.457031 46.6875 118.632812 C 46.613281 118.808594 46.574219 118.996094 46.574219 119.191406 Z M 51.597656 117.863281 L 50.847656 117.863281 L 50.847656 116.976562 L 51.597656 116.976562 L 51.597656 115.953125 C 51.597656 115.03125 51.8125 114.347656 52.246094 113.902344 C 52.675781 113.457031 53.289062 113.222656 54.085938 113.199219 L 54.085938 114.066406 C 53.535156 114.09375 53.136719 114.269531 52.882812 114.59375 C 52.628906 114.917969 52.503906 115.378906 52.503906 115.976562 L 52.503906 116.976562 L 53.894531 116.976562 L 53.894531 117.863281 L 52.503906 117.863281 L 52.503906 121.394531 L 51.597656 121.394531 Z M 55.003906 116.996094 L 55.003906 115.046875 L 55.898438 115.046875 L 55.898438 116.996094 L 57.082031 116.996094 L 57.082031 117.800781 L 55.898438 117.800781 L 55.898438 121.394531 L 55.003906 121.394531 L 55.003906 117.800781 L 54.210938 117.800781 L 54.210938 116.996094 Z M 60.234375 117.695312 L 59.90625 116.988281 L 60.6875 116.988281 C 60.890625 117.429688 61.066406 117.8125 61.207031 118.132812 C 61.347656 118.453125 61.464844 118.730469 61.5625 118.964844 C 61.664062 119.199219 61.742188 119.398438 61.804688 119.5625 C 61.871094 119.722656 61.921875 119.859375 61.964844 119.972656 C 62.007812 119.761719 62.058594 119.570312 62.117188 119.398438 C 62.179688 119.226562 62.253906 119.03125 62.34375 118.816406 C 62.4375 118.601562 62.546875 118.351562 62.675781 118.066406 C 62.808594 117.785156 62.964844 117.421875 63.144531 116.988281 L 64.054688 116.988281 L 61.964844 121.660156 C 61.835938 121.398438 61.71875 121.140625 61.613281 120.882812 C 61.503906 120.628906 61.398438 120.375 61.296875 120.121094 C 61.191406 119.867188 61.085938 119.613281 60.980469 119.359375 C 60.871094 119.109375 60.75 118.847656 60.625 118.582031 L 59.285156 121.660156 L 57.292969 116.988281 L 58.199219 116.988281 C 58.382812 117.421875 58.53125 117.785156 58.652344 118.074219 C 58.773438 118.363281 58.871094 118.613281 58.953125 118.824219 C 59.035156 119.035156 59.097656 119.226562 59.148438 119.398438 C 59.199219 119.570312 59.242188 119.761719 59.285156 119.972656 C 59.3125 119.886719 59.347656 119.792969 59.386719 119.6875 C 59.425781 119.582031 59.476562 119.445312 59.542969 119.28125 C 59.609375 119.117188 59.699219 118.90625 59.8125 118.652344 C 59.925781 118.402344 60.066406 118.082031 60.234375 117.695312 Z M 64.285156 119.234375 C 64.285156 118.910156 64.347656 118.605469 64.472656 118.320312 C 64.59375 118.035156 64.761719 117.785156 64.96875 117.570312 C 65.179688 117.359375 65.425781 117.1875 65.703125 117.0625 C 65.980469 116.933594 66.277344 116.871094 66.59375 116.871094 C 66.804688 116.871094 67 116.898438 67.175781 116.949219 C 67.351562 117.003906 67.503906 117.066406 67.628906 117.144531 C 67.753906 117.222656 67.855469 117.304688 67.933594 117.386719 C 68.011719 117.472656 68.066406 117.546875 68.09375 117.609375 L 68.136719 116.988281 L 69 116.988281 L 69 121.394531 L 68.09375 121.394531 L 68.09375 120.835938 C 68.058594 120.894531 68 120.960938 67.925781 121.039062 C 67.847656 121.113281 67.746094 121.1875 67.621094 121.253906 C 67.5 121.320312 67.355469 121.378906 67.1875 121.429688 C 67.015625 121.476562 66.824219 121.503906 66.605469 121.503906 C 66.269531 121.503906 65.957031 121.441406 65.671875 121.316406 C 65.386719 121.195312 65.144531 121.027344 64.9375 120.820312 C 64.734375 120.613281 64.574219 120.375 64.460938 120.097656 C 64.34375 119.824219 64.285156 119.535156 64.285156 119.234375 Z M 65.191406 119.179688 C 65.191406 119.386719 65.230469 119.574219 65.304688 119.75 C 65.378906 119.925781 65.476562 120.078125 65.601562 120.203125 C 65.730469 120.332031 65.882812 120.429688 66.058594 120.503906 C 66.234375 120.578125 66.425781 120.617188 66.636719 120.617188 C 66.847656 120.617188 67.042969 120.578125 67.222656 120.503906 C 67.402344 120.429688 67.558594 120.328125 67.6875 120.199219 C 67.816406 120.070312 67.917969 119.917969 67.988281 119.746094 C 68.058594 119.574219 68.09375 119.386719 68.09375 119.179688 C 68.09375 118.976562 68.058594 118.789062 67.988281 118.617188 C 67.917969 118.445312 67.816406 118.296875 67.6875 118.167969 C 67.558594 118.042969 67.402344 117.941406 67.222656 117.867188 C 67.042969 117.792969 66.847656 117.757812 66.636719 117.757812 C 66.425781 117.757812 66.234375 117.792969 66.058594 117.867188 C 65.882812 117.941406 65.730469 118.042969 65.601562 118.167969 C 65.476562 118.296875 65.378906 118.445312 65.304688 118.617188 C 65.230469 118.789062 65.191406 118.976562 65.191406 119.179688 Z M 72.890625 116.871094 L 72.691406 118.03125 C 72.496094 118.03125 72.304688 118.058594 72.121094 118.109375 C 71.9375 118.164062 71.777344 118.242188 71.628906 118.347656 C 71.488281 118.453125 71.375 118.585938 71.289062 118.742188 C 71.203125 118.902344 71.164062 119.082031 71.164062 119.285156 L 71.164062 121.394531 L 70.265625 121.394531 L 70.265625 116.988281 L 71.054688 116.988281 C 71.070312 117.207031 71.082031 117.40625 71.09375 117.585938 C 71.105469 117.761719 71.117188 117.941406 71.128906 118.117188 C 71.222656 117.925781 71.339844 117.753906 71.488281 117.597656 C 71.636719 117.445312 71.796875 117.316406 71.964844 117.210938 C 72.132812 117.101562 72.296875 117.019531 72.460938 116.960938 C 72.621094 116.902344 72.765625 116.871094 72.890625 116.871094 Z M 76.519531 120.226562 L 77.195312 120.878906 C 76.984375 121.070312 76.726562 121.21875 76.425781 121.332031 C 76.125 121.445312 75.8125 121.503906 75.496094 121.503906 C 75.175781 121.503906 74.871094 121.441406 74.582031 121.316406 C 74.300781 121.195312 74.050781 121.027344 73.839844 120.820312 C 73.628906 120.613281 73.464844 120.371094 73.339844 120.089844 C 73.21875 119.808594 73.15625 119.507812 73.15625 119.191406 C 73.15625 118.875 73.21875 118.578125 73.339844 118.296875 C 73.464844 118.015625 73.628906 117.769531 73.839844 117.558594 C 74.050781 117.347656 74.296875 117.179688 74.574219 117.054688 C 74.851562 116.933594 75.148438 116.871094 75.464844 116.871094 C 75.964844 116.871094 76.398438 117.019531 76.769531 117.320312 C 77.136719 117.617188 77.402344 118.011719 77.566406 118.496094 C 77.347656 118.574219 77.097656 118.667969 76.816406 118.78125 C 76.535156 118.894531 76.242188 119.011719 75.941406 119.132812 C 75.636719 119.257812 75.335938 119.378906 75.035156 119.496094 C 74.730469 119.617188 74.449219 119.726562 74.1875 119.824219 C 74.308594 120.0625 74.484375 120.253906 74.710938 120.398438 C 74.941406 120.542969 75.195312 120.617188 75.476562 120.617188 C 75.667969 120.617188 75.859375 120.582031 76.050781 120.511719 C 76.246094 120.441406 76.402344 120.34375 76.519531 120.226562 Z M 76.4375 118.285156 C 76.351562 118.109375 76.21875 117.976562 76.035156 117.886719 C 75.851562 117.800781 75.667969 117.757812 75.476562 117.757812 C 75.273438 117.757812 75.085938 117.796875 74.914062 117.875 C 74.738281 117.949219 74.589844 118.054688 74.464844 118.183594 C 74.335938 118.3125 74.238281 118.464844 74.164062 118.632812 C 74.089844 118.800781 74.050781 118.972656 74.050781 119.148438 C 74.050781 119.183594 74.054688 119.210938 74.054688 119.222656 C 74.0625 119.238281 74.0625 119.25 74.0625 119.253906 C 74.246094 119.183594 74.445312 119.105469 74.660156 119.015625 C 74.875 118.929688 75.085938 118.839844 75.296875 118.753906 C 75.507812 118.664062 75.710938 118.582031 75.910156 118.5 C 76.105469 118.417969 76.28125 118.347656 76.4375 118.285156 Z M 85.191406 121.394531 L 80.023438 121.394531 L 80.023438 113.75 L 85.042969 113.75 L 85.042969 114.792969 L 81.183594 114.792969 L 81.183594 117.03125 L 84.621094 117.03125 L 84.621094 118.09375 L 81.183594 118.09375 L 81.183594 120.332031 L 85.191406 120.332031 Z M 86.097656 121.394531 L 86.097656 116.988281 L 86.890625 116.988281 C 86.902344 117.207031 86.914062 117.40625 86.925781 117.585938 C 86.9375 117.761719 86.949219 117.941406 86.960938 118.117188 C 87.125 117.734375 87.355469 117.433594 87.65625 117.210938 C 87.953125 116.984375 88.320312 116.871094 88.753906 116.871094 C 89.199219 116.871094 89.554688 116.996094 89.820312 117.242188 C 90.089844 117.488281 90.230469 117.804688 90.242188 118.191406 L 90.242188 121.394531 L 89.335938 121.394531 L 89.335938 118.601562 C 89.320312 118.375 89.246094 118.183594 89.105469 118.023438 C 88.964844 117.867188 88.742188 117.78125 88.4375 117.769531 C 88.226562 117.769531 88.035156 117.804688 87.859375 117.878906 C 87.683594 117.953125 87.53125 118.054688 87.40625 118.179688 C 87.277344 118.304688 87.179688 118.457031 87.105469 118.632812 C 87.03125 118.808594 86.996094 119.003906 86.996094 119.214844 L 86.996094 121.394531 Z M 91.171875 119.203125 C 91.171875 118.871094 91.230469 118.5625 91.351562 118.277344 C 91.46875 117.996094 91.632812 117.75 91.835938 117.539062 C 92.039062 117.332031 92.277344 117.171875 92.554688 117.050781 C 92.828125 116.929688 93.121094 116.871094 93.429688 116.871094 C 93.667969 116.871094 93.878906 116.902344 94.066406 116.964844 C 94.253906 117.03125 94.410156 117.101562 94.535156 117.1875 C 94.664062 117.273438 94.761719 117.355469 94.835938 117.433594 C 94.910156 117.515625 94.957031 117.574219 94.980469 117.609375 C 94.980469 117.511719 94.984375 117.40625 95 117.296875 C 95.015625 117.1875 95.019531 117.085938 95.019531 116.988281 L 95.886719 116.988281 L 95.886719 121.195312 C 95.886719 121.925781 95.671875 122.496094 95.242188 122.90625 C 94.8125 123.3125 94.234375 123.515625 93.503906 123.515625 C 93.25 123.515625 93.023438 123.492188 92.824219 123.4375 C 92.621094 123.386719 92.4375 123.316406 92.273438 123.230469 C 92.109375 123.148438 91.957031 123.050781 91.820312 122.9375 C 91.683594 122.824219 91.546875 122.707031 91.414062 122.589844 L 91.992188 121.976562 C 92.210938 122.179688 92.433594 122.34375 92.664062 122.460938 C 92.890625 122.582031 93.164062 122.640625 93.480469 122.640625 C 93.953125 122.640625 94.316406 122.527344 94.578125 122.304688 C 94.839844 122.078125 94.972656 121.765625 94.980469 121.363281 L 94.980469 121.058594 C 94.980469 121.003906 94.984375 120.941406 95 120.875 C 95.015625 120.808594 95.019531 120.757812 95.019531 120.722656 C 94.957031 120.804688 94.878906 120.894531 94.785156 120.988281 C 94.6875 121.085938 94.578125 121.167969 94.453125 121.242188 C 94.324219 121.316406 94.175781 121.378906 94.007812 121.429688 C 93.839844 121.476562 93.648438 121.503906 93.4375 121.503906 C 93.109375 121.503906 92.804688 121.441406 92.53125 121.324219 C 92.257812 121.203125 92.019531 121.039062 91.816406 120.832031 C 91.609375 120.625 91.453125 120.382812 91.339844 120.101562 C 91.226562 119.828125 91.171875 119.527344 91.171875 119.203125 Z M 92.078125 119.179688 C 92.078125 119.386719 92.117188 119.574219 92.191406 119.75 C 92.261719 119.925781 92.363281 120.078125 92.488281 120.203125 C 92.617188 120.332031 92.769531 120.429688 92.941406 120.503906 C 93.121094 120.578125 93.3125 120.617188 93.523438 120.617188 C 93.734375 120.617188 93.929688 120.578125 94.109375 120.503906 C 94.289062 120.429688 94.441406 120.328125 94.574219 120.199219 C 94.703125 120.070312 94.804688 119.917969 94.875 119.746094 C 94.945312 119.574219 94.980469 119.386719 94.980469 119.179688 C 94.980469 118.976562 94.945312 118.789062 94.875 118.617188 C 94.804688 118.445312 94.703125 118.296875 94.574219 118.167969 C 94.441406 118.042969 94.289062 117.941406 94.109375 117.867188 C 93.929688 117.792969 93.734375 117.757812 93.523438 117.757812 C 93.3125 117.757812 93.121094 117.792969 92.941406 117.867188 C 92.765625 117.941406 92.617188 118.042969 92.488281 118.167969 C 92.363281 118.296875 92.261719 118.445312 92.191406 118.617188 C 92.117188 118.789062 92.078125 118.976562 92.078125 119.179688 Z M 97.035156 115.300781 C 97.035156 115.132812 97.097656 114.992188 97.222656 114.878906 C 97.34375 114.765625 97.476562 114.710938 97.617188 114.710938 C 97.757812 114.710938 97.886719 114.765625 98.007812 114.878906 C 98.125 114.988281 98.1875 115.132812 98.183594 115.300781 C 98.183594 115.46875 98.125 115.605469 98.007812 115.714844 C 97.886719 115.824219 97.757812 115.878906 97.617188 115.878906 C 97.476562 115.878906 97.34375 115.824219 97.222656 115.714844 C 97.097656 115.605469 97.035156 115.46875 97.035156 115.300781 Z M 98.046875 116.988281 L 98.046875 121.394531 L 97.152344 121.394531 L 97.152344 116.988281 Z M 99.3125 121.394531 L 99.3125 116.988281 L 100.105469 116.988281 C 100.121094 117.207031 100.132812 117.40625 100.144531 117.585938 C 100.152344 117.761719 100.164062 117.941406 100.179688 118.117188 C 100.339844 117.734375 100.570312 117.433594 100.871094 117.210938 C 101.167969 116.984375 101.535156 116.871094 101.972656 116.871094 C 102.414062 116.871094 102.769531 116.996094 103.039062 117.242188 C 103.304688 117.488281 103.445312 117.804688 103.460938 118.191406 L 103.460938 121.394531 L 102.550781 121.394531 L 102.550781 118.601562 C 102.539062 118.375 102.460938 118.183594 102.320312 118.023438 C 102.179688 117.867188 101.957031 117.78125 101.65625 117.769531 C 101.445312 117.769531 101.25 117.804688 101.074219 117.878906 C 100.898438 117.953125 100.75 118.054688 100.621094 118.179688 C 100.496094 118.304688 100.394531 118.457031 100.320312 118.632812 C 100.246094 118.808594 100.210938 119.003906 100.210938 119.214844 L 100.210938 121.394531 Z M 107.742188 120.226562 L 108.417969 120.878906 C 108.207031 121.070312 107.949219 121.21875 107.648438 121.332031 C 107.34375 121.445312 107.035156 121.503906 106.71875 121.503906 C 106.394531 121.503906 106.089844 121.441406 105.804688 121.316406 C 105.519531 121.195312 105.273438 121.027344 105.0625 120.820312 C 104.851562 120.613281 104.683594 120.371094 104.5625 120.089844 C 104.4375 119.808594 104.375 119.507812 104.375 119.191406 C 104.375 118.875 104.4375 118.578125 104.5625 118.296875 C 104.683594 118.015625 104.851562 117.769531 105.0625 117.558594 C 105.273438 117.347656 105.515625 117.179688 105.792969 117.054688 C 106.074219 116.933594 106.371094 116.871094 106.6875 116.871094 C 107.1875 116.871094 107.621094 117.019531 107.992188 117.320312 C 108.359375 117.617188 108.625 118.011719 108.785156 118.496094 C 108.566406 118.574219 108.316406 118.667969 108.035156 118.78125 C 107.753906 118.894531 107.464844 119.011719 107.160156 119.132812 C 106.859375 119.257812 106.554688 119.378906 106.253906 119.496094 C 105.953125 119.617188 105.671875 119.726562 105.410156 119.824219 C 105.53125 120.0625 105.703125 120.253906 105.933594 120.398438 C 106.160156 120.542969 106.417969 120.617188 106.699219 120.617188 C 106.886719 120.617188 107.078125 120.582031 107.269531 120.511719 C 107.464844 120.441406 107.621094 120.34375 107.742188 120.226562 Z M 107.65625 118.285156 C 107.574219 118.109375 107.4375 117.976562 107.257812 117.886719 C 107.074219 117.800781 106.886719 117.757812 106.699219 117.757812 C 106.492188 117.757812 106.304688 117.796875 106.132812 117.875 C 105.960938 117.949219 105.8125 118.054688 105.683594 118.183594 C 105.558594 118.3125 105.457031 118.464844 105.382812 118.632812 C 105.308594 118.800781 105.273438 118.972656 105.273438 119.148438 C 105.273438 119.183594 105.273438 119.210938 105.277344 119.222656 C 105.28125 119.238281 105.285156 119.25 105.285156 119.253906 C 105.464844 119.183594 105.664062 119.105469 105.882812 119.015625 C 106.09375 118.929688 106.308594 118.839844 106.519531 118.753906 C 106.730469 118.664062 106.933594 118.582031 107.128906 118.5 C 107.328125 118.417969 107.503906 118.347656 107.65625 118.285156 Z M 112.625 120.226562 L 113.300781 120.878906 C 113.089844 121.070312 112.832031 121.21875 112.53125 121.332031 C 112.226562 121.445312 111.917969 121.503906 111.601562 121.503906 C 111.277344 121.503906 110.972656 121.441406 110.6875 121.316406 C 110.40625 121.195312 110.15625 121.027344 109.945312 120.820312 C 109.734375 120.613281 109.566406 120.371094 109.445312 120.089844 C 109.320312 119.808594 109.261719 119.507812 109.261719 119.191406 C 109.261719 118.875 109.320312 118.578125 109.445312 118.296875 C 109.566406 118.015625 109.734375 117.769531 109.945312 117.558594 C 110.15625 117.347656 110.402344 117.179688 110.679688 117.054688 C 110.957031 116.933594 111.253906 116.871094 111.570312 116.871094 C 112.070312 116.871094 112.503906 117.019531 112.871094 117.320312 C 113.242188 117.617188 113.507812 118.011719 113.667969 118.496094 C 113.453125 118.574219 113.203125 118.667969 112.921875 118.78125 C 112.640625 118.894531 112.347656 119.011719 112.046875 119.132812 C 111.742188 119.257812 111.441406 119.378906 111.136719 119.496094 C 110.835938 119.617188 110.554688 119.726562 110.292969 119.824219 C 110.414062 120.0625 110.585938 120.253906 110.816406 120.398438 C 111.042969 120.542969 111.300781 120.617188 111.582031 120.617188 C 111.769531 120.617188 111.960938 120.582031 112.15625 120.511719 C 112.347656 120.441406 112.507812 120.34375 112.625 120.226562 Z M 112.539062 118.285156 C 112.457031 118.109375 112.324219 117.976562 112.140625 117.886719 C 111.957031 117.800781 111.769531 117.757812 111.582031 117.757812 C 111.378906 117.757812 111.1875 117.796875 111.015625 117.875 C 110.84375 117.949219 110.695312 118.054688 110.570312 118.183594 C 110.441406 118.3125 110.339844 118.464844 110.265625 118.632812 C 110.195312 118.800781 110.15625 118.972656 110.15625 119.148438 C 110.15625 119.183594 110.160156 119.210938 110.160156 119.222656 C 110.164062 119.238281 110.167969 119.25 110.167969 119.253906 C 110.351562 119.183594 110.546875 119.105469 110.761719 119.015625 C 110.976562 118.929688 111.191406 118.839844 111.402344 118.753906 C 111.613281 118.664062 111.816406 118.582031 112.011719 118.5 C 112.210938 118.417969 112.386719 118.347656 112.539062 118.285156 Z M 117.078125 116.871094 L 116.875 118.03125 C 116.679688 118.03125 116.488281 118.058594 116.304688 118.109375 C 116.125 118.164062 115.960938 118.242188 115.816406 118.347656 C 115.671875 118.453125 115.558594 118.585938 115.472656 118.742188 C 115.390625 118.902344 115.347656 119.082031 115.347656 119.285156 L 115.347656 121.394531 L 114.449219 121.394531 L 114.449219 116.988281 L 115.242188 116.988281 C 115.253906 117.207031 115.265625 117.40625 115.277344 117.585938 C 115.289062 117.761719 115.300781 117.941406 115.316406 118.117188 C 115.40625 117.925781 115.527344 117.753906 115.671875 117.597656 C 115.820312 117.445312 115.980469 117.316406 116.148438 117.210938 C 116.316406 117.101562 116.480469 117.019531 116.644531 116.960938 C 116.804688 116.902344 116.949219 116.871094 117.078125 116.871094 Z M 117.078125 116.871094 "/>
</g>
<g clip-path="url(#clip3)" clip-rule="nonzero">
<path style=" stroke:none;fill-rule:nonzero;fill:rgb(97.647059%,80%,4.313725%);fill-opacity:1;" d="M 36.765625 101.089844 L 36.765625 48.601562 L 44.265625 48.601562 L 44.265625 94.566406 L 72.683594 94.566406 L 72.683594 101.089844 Z M 115.652344 81.445312 C 115.652344 81.996094 115.601562 82.71875 115.5 83.621094 L 83.257812 83.621094 C 83.707031 87.117188 85.242188 89.929688 87.859375 92.046875 C 90.492188 94.175781 93.753906 95.242188 97.652344 95.242188 C 102.402344 95.242188 106.226562 93.640625 109.125 90.441406 L 113.101562 95.09375 C 111.300781 97.191406 109.0625 98.792969 106.382812 99.890625 C 103.710938 100.992188 100.726562 101.539062 97.429688 101.539062 C 93.230469 101.539062 89.503906 100.675781 86.257812 98.945312 C 83.007812 97.226562 80.492188 94.816406 78.710938 91.71875 C 76.941406 88.617188 76.058594 85.117188 76.058594 81.21875 C 76.058594 77.371094 76.917969 73.894531 78.636719 70.796875 C 80.367188 67.695312 82.742188 65.28125 85.761719 63.554688 C 88.789062 61.832031 92.203125 60.972656 96.003906 60.972656 C 99.804688 60.972656 103.1875 61.832031 106.15625 63.554688 C 109.136719 65.28125 111.460938 67.695312 113.132812 70.796875 C 114.8125 73.894531 115.652344 77.445312 115.652344 81.445312 Z M 96.003906 67.046875 C 92.554688 67.046875 89.664062 68.097656 87.335938 70.195312 C 85.015625 72.296875 83.65625 75.046875 83.257812 78.445312 L 108.75 78.445312 C 108.351562 75.097656 106.988281 72.355469 104.65625 70.226562 C 102.339844 68.105469 99.453125 67.046875 96.003906 67.046875 Z M 142.644531 101.539062 C 138.695312 101.539062 135.148438 100.664062 131.996094 98.917969 C 128.847656 97.167969 126.382812 94.753906 124.605469 91.671875 C 122.835938 88.601562 121.949219 85.117188 121.949219 81.21875 C 121.949219 77.320312 122.835938 73.832031 124.605469 70.75 C 126.382812 67.683594 128.847656 65.28125 131.996094 63.554688 C 135.148438 61.832031 138.695312 60.972656 142.644531 60.972656 C 146.59375 60.972656 150.128906 61.832031 153.25 63.554688 C 156.378906 65.28125 158.828125 67.683594 160.597656 70.75 C 162.375 73.832031 163.265625 77.320312 163.265625 81.21875 C 163.265625 85.117188 162.375 88.601562 160.597656 91.671875 C 158.828125 94.753906 156.378906 97.167969 153.25 98.917969 C 150.128906 100.664062 146.59375 101.539062 142.644531 101.539062 Z M 142.644531 95.242188 C 145.195312 95.242188 147.480469 94.652344 149.5 93.472656 C 151.527344 92.300781 153.117188 90.652344 154.269531 88.523438 C 155.417969 86.402344 155.992188 83.96875 155.992188 81.21875 C 155.992188 78.46875 155.417969 76.03125 154.269531 73.902344 C 153.117188 71.78125 151.527344 70.148438 149.5 68.996094 C 147.480469 67.847656 145.195312 67.273438 142.644531 67.273438 C 140.097656 67.273438 137.804688 67.847656 135.777344 68.996094 C 133.757812 70.148438 132.15625 71.78125 130.976562 73.902344 C 129.808594 76.03125 129.222656 78.46875 129.222656 81.21875 C 129.222656 83.96875 129.808594 86.402344 130.976562 88.523438 C 132.15625 90.652344 133.757812 92.300781 135.777344 93.472656 C 137.804688 94.652344 140.097656 95.242188 142.644531 95.242188 Z M 142.644531 95.242188 "/>
</g>
</g>
</svg>
