<svg xmlns="http://www.w3.org/2000/svg" version="1.1" xmlns:xlink="http://www.w3.org/1999/xlink" xmlns:svgjs="http://svgjs.dev/svgjs" width="2000" height="1500" viewBox="0 0 2000 1500"><rect width="2000" height="1500" fill="#0c1d36"></rect><g transform="matrix(0.75,0,0,0.75,250.15999999999997,266.95765869897264)"><svg viewBox="0 0 375 242" data-background-color="#0c1d36" preserveAspectRatio="xMidYMid meet" height="1290" width="2000" xmlns="http://www.w3.org/2000/svg" xmlns:xlink="http://www.w3.org/1999/xlink"><g id="tight-bounds" transform="matrix(1,0,0,1,-0.03976036071776434,-0.17682995605468932)"><svg viewBox="0 0 375.07952880859375 242.3538360595703" height="242.3538360595703" width="375.07952880859375"><g><svg></svg></g><g><svg viewBox="0 0 375.07952880859375 242.3538360595703" height="242.3538360595703" width="375.07952880859375"><g transform="matrix(1,0,0,1,-10.220239639282227,-4.8461761474609375)"><path xmlns="http://www.w3.org/2000/svg" d="M10.22 242.354v-237.508h375.08v237.508h-109.042v-11.942h97.1v-213.624h-351.196l0 204.609h-11.099l0 20.957z" fill="#f9cc0b" fill-rule="nonzero" stroke="none" stroke-width="1" stroke-linecap="butt" stroke-linejoin="miter" stroke-miterlimit="10" stroke-dasharray="" stroke-dashoffset="0" font-family="none" font-weight="none" font-size="none" text-anchor="none" style="mix-blend-mode: normal" data-fill-palette-color="tertiary"></path><g><path xmlns="http://www.w3.org/2000/svg" d="M59.552 223.825v0l-1.029 2.348c-0.721-0.264-1.437-0.475-2.148-0.633-0.714-0.158-1.397-0.237-2.047-0.238v0c-1.108 0-1.991 0.229-2.649 0.686-0.661 0.457-0.992 1.038-0.992 1.741v0c0 0.598 0.237 1.076 0.712 1.436 0.475 0.362 1.064 0.688 1.768 0.976 0.704 0.292 1.469 0.582 2.295 0.87 0.827 0.292 1.592 0.667 2.296 1.124 0.704 0.457 1.293 1.032 1.767 1.726 0.475 0.697 0.712 1.59 0.713 2.68v0c0 0.844-0.153 1.604-0.459 2.28-0.31 0.679-0.767 1.265-1.372 1.757-0.609 0.492-1.365 0.871-2.269 1.134-0.908 0.264-1.968 0.396-3.182 0.396v0c-0.774 0-1.474-0.053-2.1-0.158-0.623-0.106-1.184-0.243-1.683-0.412-0.503-0.165-0.943-0.345-1.319-0.538-0.38-0.193-0.702-0.369-0.966-0.528v0l1.266-2.506c0.704 0.405 1.486 0.73 2.348 0.976 0.862 0.246 1.645 0.369 2.349 0.369v0c0.352 0 0.788-0.044 1.308-0.131 0.517-0.088 1.013-0.243 1.488-0.465 0.475-0.218 0.885-0.512 1.23-0.881 0.341-0.369 0.512-0.835 0.511-1.398v0c0-0.51-0.135-0.946-0.406-1.309-0.274-0.359-0.635-0.675-1.082-0.95-0.45-0.271-0.96-0.517-1.53-0.738-0.573-0.218-1.159-0.445-1.757-0.681-0.598-0.239-1.184-0.491-1.757-0.755-0.57-0.264-1.078-0.586-1.525-0.965-0.45-0.376-0.811-0.816-1.082-1.319-0.274-0.5-0.412-1.101-0.411-1.805v0c0-0.651 0.132-1.293 0.396-1.926 0.264-0.633 0.66-1.196 1.187-1.688 0.528-0.492 1.184-0.888 1.968-1.188 0.781-0.299 1.69-0.449 2.728-0.448v0c0.633 0 1.254 0.053 1.863 0.158 0.605 0.106 1.154 0.223 1.646 0.354 0.492 0.134 0.911 0.262 1.256 0.385 0.341 0.123 0.565 0.211 0.67 0.264zM61.847 236.357v0c0-0.791 0.155-1.539 0.464-2.243 0.306-0.704 0.723-1.316 1.251-1.836 0.528-0.517 1.149-0.93 1.863-1.24 0.711-0.306 1.479-0.459 2.305-0.459v0c0.827 0 1.597 0.153 2.312 0.459 0.711 0.31 1.326 0.723 1.846 1.24 0.517 0.521 0.922 1.133 1.214 1.836 0.288 0.704 0.433 1.451 0.433 2.243v0c0 0.791-0.144 1.539-0.433 2.242-0.292 0.704-0.697 1.319-1.214 1.847-0.521 0.528-1.136 0.945-1.846 1.251-0.714 0.31-1.493 0.464-2.338 0.464v0c-0.809 0-1.569-0.141-2.279-0.422-0.714-0.281-1.335-0.677-1.863-1.188-0.528-0.51-0.945-1.122-1.251-1.836-0.31-0.711-0.464-1.497-0.464-2.358zM64.09 236.383v0c0 0.492 0.093 0.953 0.279 1.382 0.183 0.433 0.436 0.811 0.76 1.135 0.327 0.327 0.705 0.582 1.135 0.765 0.433 0.186 0.895 0.28 1.387 0.28v0c0.492 0 0.959-0.093 1.399-0.28 0.44-0.183 0.823-0.438 1.15-0.765 0.324-0.324 0.582-0.702 0.776-1.135 0.193-0.429 0.29-0.89 0.29-1.382v0c0-0.492-0.097-0.959-0.29-1.398-0.193-0.44-0.452-0.823-0.776-1.151-0.327-0.324-0.711-0.579-1.15-0.765-0.44-0.183-0.906-0.274-1.399-0.274v0c-0.492 0-0.955 0.091-1.387 0.274-0.429 0.186-0.807 0.441-1.135 0.765-0.324 0.327-0.577 0.711-0.76 1.151-0.186 0.44-0.28 0.906-0.279 1.398zM76.648 233.059h-1.873v-2.216h1.873v-2.56c0-2.304 0.542-4.014 1.625-5.128 1.08-1.119 2.614-1.704 4.601-1.757v0 2.163c-1.372 0.07-2.374 0.51-3.007 1.319-0.633 0.809-0.95 1.961-0.95 3.456v0 2.507h3.482v2.216h-3.482v8.838h-2.269zM85.17 230.895v-4.88h2.242v4.88h2.955v2.005h-2.955v8.997h-2.242v-8.997h-1.979v-2.005zM98.256 232.637v0l-0.818-1.768h1.952c0.51 1.108 0.941 2.061 1.293 2.86 0.352 0.802 0.651 1.497 0.897 2.084 0.246 0.591 0.449 1.089 0.607 1.493 0.158 0.405 0.29 0.748 0.395 1.029v0c0.106-0.528 0.234-1.006 0.386-1.435 0.148-0.433 0.336-0.918 0.564-1.456 0.229-0.535 0.507-1.159 0.834-1.873 0.324-0.711 0.714-1.611 1.171-2.702v0h2.269l-5.224 11.688c-0.317-0.651-0.61-1.298-0.881-1.942-0.274-0.64-0.538-1.277-0.791-1.91-0.257-0.633-0.521-1.266-0.792-1.9-0.274-0.633-0.57-1.284-0.886-1.952v0l-3.351 7.704-4.986-11.688h2.269c0.457 1.09 0.835 1.996 1.134 2.717 0.299 0.721 0.551 1.346 0.755 1.874 0.201 0.528 0.362 1.008 0.485 1.44 0.123 0.429 0.237 0.908 0.343 1.435v0c0.07-0.211 0.155-0.449 0.253-0.712 0.095-0.264 0.227-0.603 0.396-1.018 0.165-0.412 0.389-0.934 0.67-1.568 0.281-0.633 0.633-1.433 1.056-2.4zM108.387 236.489v0c0-0.809 0.155-1.571 0.464-2.285 0.306-0.711 0.723-1.335 1.25-1.873 0.528-0.535 1.14-0.96 1.837-1.277 0.693-0.317 1.435-0.475 2.226-0.475v0c0.528 0 1.011 0.065 1.451 0.195 0.44 0.134 0.818 0.297 1.135 0.491 0.317 0.193 0.572 0.396 0.765 0.607 0.193 0.211 0.325 0.396 0.396 0.554v0l0.105-1.557h2.164v11.028h-2.269v-1.398c-0.088 0.141-0.229 0.308-0.422 0.501-0.193 0.193-0.445 0.373-0.755 0.538-0.306 0.169-0.67 0.315-1.092 0.438-0.422 0.123-0.906 0.185-1.451 0.185v0c-0.844 0-1.622-0.155-2.332-0.464-0.714-0.306-1.326-0.719-1.837-1.24-0.51-0.517-0.909-1.119-1.197-1.805-0.292-0.686-0.438-1.407-0.438-2.163zM110.656 236.357v0c0 0.51 0.093 0.985 0.279 1.424 0.183 0.44 0.433 0.818 0.749 1.135 0.317 0.317 0.695 0.566 1.135 0.749 0.44 0.186 0.923 0.28 1.451 0.28v0c0.528 0 1.017-0.093 1.467-0.28 0.447-0.183 0.834-0.438 1.161-0.765 0.324-0.324 0.573-0.702 0.749-1.135 0.176-0.429 0.264-0.899 0.264-1.408v0c0-0.51-0.088-0.981-0.264-1.415-0.176-0.429-0.426-0.802-0.749-1.118-0.327-0.317-0.714-0.568-1.161-0.755-0.45-0.183-0.939-0.274-1.467-0.274v0c-0.528 0-1.011 0.091-1.451 0.274-0.44 0.186-0.818 0.438-1.135 0.755-0.317 0.317-0.566 0.689-0.749 1.118-0.186 0.433-0.28 0.904-0.279 1.415zM129.915 230.579l-0.501 2.902c-0.492 0-0.967 0.065-1.425 0.195-0.457 0.134-0.867 0.332-1.229 0.596-0.359 0.264-0.644 0.593-0.855 0.987-0.211 0.398-0.317 0.851-0.317 1.361v0 5.277h-2.242v-11.028h1.978c0.035 0.545 0.067 1.043 0.095 1.493 0.025 0.447 0.055 0.89 0.09 1.33v0c0.229-0.475 0.528-0.906 0.897-1.293 0.369-0.387 0.765-0.712 1.187-0.976 0.422-0.264 0.835-0.471 1.24-0.623 0.405-0.148 0.765-0.222 1.082-0.221zM138.991 238.969l1.688 1.635c-0.528 0.475-1.17 0.853-1.926 1.135-0.756 0.281-1.53 0.422-2.321 0.422v0c-0.809 0-1.571-0.155-2.285-0.464-0.711-0.306-1.33-0.719-1.857-1.24-0.528-0.517-0.945-1.127-1.251-1.831-0.31-0.704-0.464-1.451-0.464-2.243v0c0-0.791 0.155-1.539 0.464-2.243 0.306-0.704 0.723-1.319 1.251-1.846 0.528-0.528 1.14-0.946 1.836-1.256 0.693-0.306 1.435-0.459 2.226-0.459v0c1.249 0 2.336 0.373 3.261 1.118 0.922 0.749 1.585 1.731 1.99 2.945v0c-0.545 0.193-1.17 0.431-1.874 0.712-0.704 0.281-1.433 0.575-2.189 0.881-0.756 0.31-1.513 0.614-2.269 0.913-0.756 0.299-1.46 0.572-2.111 0.818v0c0.299 0.598 0.735 1.076 1.309 1.435 0.57 0.362 1.207 0.543 1.91 0.544v0c0.475 0 0.955-0.088 1.44-0.264 0.482-0.176 0.872-0.413 1.172-0.712zM138.78 234.114v0c-0.211-0.44-0.545-0.77-1.003-0.992-0.457-0.218-0.923-0.327-1.398-0.327v0c-0.51 0-0.98 0.097-1.409 0.29-0.433 0.193-0.807 0.452-1.124 0.776-0.317 0.327-0.568 0.702-0.754 1.124-0.183 0.422-0.274 0.853-0.275 1.292v0c0 0.088 0.004 0.149 0.011 0.185 0.011 0.035 0.016 0.062 0.016 0.079v0c0.457-0.176 0.955-0.375 1.493-0.596 0.535-0.218 1.066-0.438 1.593-0.66 0.528-0.218 1.038-0.429 1.531-0.633 0.492-0.201 0.932-0.38 1.319-0.538zM160.678 241.897h-12.928v-19.128h12.558v2.612h-9.656v5.594h8.601v2.664h-8.601v5.593h10.026zM162.946 241.897v-11.028h1.979c0.035 0.545 0.067 1.043 0.095 1.493 0.025 0.447 0.055 0.89 0.09 1.33v0c0.405-0.95 0.981-1.706 1.731-2.269 0.746-0.563 1.664-0.844 2.754-0.844v0c1.108 0 1.996 0.308 2.665 0.923 0.668 0.616 1.02 1.407 1.055 2.375v0 8.02h-2.269v-6.991c-0.035-0.563-0.229-1.043-0.58-1.441-0.352-0.394-0.906-0.609-1.663-0.644v0c-0.528 0-1.011 0.091-1.451 0.275-0.44 0.186-0.818 0.438-1.134 0.754-0.317 0.317-0.566 0.695-0.749 1.135-0.186 0.44-0.28 0.923-0.28 1.451v0 5.461zM175.637 236.409v0c0-0.827 0.149-1.597 0.448-2.311 0.299-0.711 0.704-1.326 1.214-1.847 0.51-0.517 1.108-0.925 1.794-1.224 0.686-0.299 1.416-0.449 2.19-0.448v0c0.598 0 1.131 0.079 1.598 0.237 0.464 0.158 0.855 0.343 1.172 0.554 0.317 0.211 0.568 0.417 0.754 0.618 0.183 0.204 0.301 0.35 0.354 0.438v0c0-0.246 0.018-0.507 0.053-0.781 0.035-0.271 0.053-0.529 0.052-0.776v0h2.164v10.527c0 1.829-0.536 3.254-1.61 4.274-1.073 1.02-2.524 1.53-4.353 1.53v0c-0.633 0-1.2-0.065-1.699-0.195-0.503-0.134-0.96-0.306-1.372-0.517-0.415-0.211-0.793-0.457-1.134-0.739-0.345-0.281-0.684-0.572-1.019-0.871v0l1.451-1.53c0.545 0.51 1.105 0.915 1.678 1.214 0.57 0.299 1.251 0.449 2.042 0.448v0c1.178 0 2.093-0.281 2.744-0.844 0.651-0.563 0.985-1.346 1.003-2.348v0-0.765c0-0.141 0.018-0.295 0.053-0.465 0.035-0.165 0.053-0.292 0.052-0.379v0c-0.158 0.211-0.355 0.434-0.591 0.67-0.239 0.239-0.517 0.45-0.833 0.633-0.317 0.186-0.686 0.341-1.108 0.464-0.422 0.123-0.897 0.185-1.425 0.185v0c-0.827 0-1.583-0.149-2.269-0.449-0.686-0.299-1.284-0.709-1.794-1.229-0.51-0.517-0.906-1.124-1.187-1.82-0.281-0.693-0.422-1.444-0.422-2.254zM177.906 236.357v0c0 0.51 0.093 0.985 0.279 1.424 0.183 0.44 0.433 0.818 0.75 1.135 0.317 0.317 0.695 0.566 1.134 0.749 0.44 0.186 0.923 0.28 1.451 0.28v0c0.528 0 1.017-0.093 1.467-0.28 0.447-0.183 0.834-0.438 1.161-0.765 0.324-0.324 0.573-0.702 0.749-1.135 0.176-0.429 0.264-0.899 0.264-1.408v0c0-0.51-0.088-0.981-0.264-1.415-0.176-0.429-0.426-0.802-0.749-1.118-0.327-0.317-0.714-0.568-1.161-0.755-0.45-0.183-0.939-0.274-1.467-0.274v0c-0.528 0-1.011 0.091-1.451 0.274-0.44 0.186-0.818 0.438-1.134 0.755-0.317 0.317-0.566 0.689-0.75 1.118-0.186 0.433-0.28 0.904-0.279 1.415zM190.306 226.648v0c0-0.422 0.155-0.774 0.464-1.056 0.306-0.281 0.635-0.422 0.987-0.422v0c0.352 0 0.677 0.141 0.976 0.422 0.299 0.281 0.449 0.633 0.448 1.056v0c0 0.422-0.149 0.769-0.448 1.039-0.299 0.274-0.624 0.412-0.976 0.412v0c-0.352 0-0.681-0.137-0.987-0.412-0.31-0.271-0.464-0.617-0.464-1.039zM192.838 230.869v11.028h-2.242v-11.028zM196.004 241.897v-11.028h1.979c0.035 0.545 0.067 1.043 0.095 1.493 0.025 0.447 0.055 0.89 0.09 1.33v0c0.405-0.95 0.981-1.706 1.73-2.269 0.746-0.563 1.664-0.844 2.755-0.844v0c1.108 0 1.996 0.308 2.664 0.923 0.668 0.616 1.02 1.407 1.056 2.375v0 8.02h-2.269v-6.991c-0.035-0.563-0.229-1.043-0.581-1.441-0.352-0.394-0.906-0.609-1.662-0.644v0c-0.528 0-1.011 0.091-1.451 0.275-0.44 0.186-0.818 0.438-1.134 0.754-0.317 0.317-0.568 0.695-0.755 1.135-0.183 0.44-0.274 0.923-0.274 1.451v0 5.461zM217.084 238.969l1.689 1.635c-0.528 0.475-1.17 0.853-1.926 1.135-0.756 0.281-1.53 0.422-2.322 0.422v0c-0.809 0-1.571-0.155-2.285-0.464-0.711-0.306-1.33-0.719-1.857-1.24-0.528-0.517-0.945-1.127-1.251-1.831-0.31-0.704-0.464-1.451-0.464-2.243v0c0-0.791 0.155-1.539 0.464-2.243 0.306-0.704 0.723-1.319 1.251-1.846 0.528-0.528 1.138-0.946 1.831-1.256 0.697-0.306 1.441-0.459 2.232-0.459v0c1.249 0 2.336 0.373 3.261 1.118 0.922 0.749 1.585 1.731 1.989 2.945v0c-0.545 0.193-1.17 0.431-1.873 0.712-0.704 0.281-1.433 0.575-2.19 0.881-0.756 0.31-1.513 0.614-2.269 0.913-0.756 0.299-1.46 0.572-2.11 0.818v0c0.299 0.598 0.735 1.076 1.308 1.435 0.57 0.362 1.207 0.543 1.91 0.544v0c0.475 0 0.953-0.088 1.436-0.264 0.485-0.176 0.878-0.413 1.176-0.712zM216.873 234.114v0c-0.211-0.44-0.545-0.77-1.002-0.992-0.457-0.218-0.923-0.327-1.399-0.327v0c-0.51 0-0.98 0.097-1.409 0.29-0.433 0.193-0.807 0.452-1.123 0.776-0.317 0.327-0.568 0.702-0.755 1.124-0.183 0.422-0.274 0.853-0.274 1.292v0c0 0.088 0.004 0.149 0.01 0.185 0.011 0.035 0.016 0.062 0.016 0.079v0c0.457-0.176 0.955-0.375 1.493-0.596 0.535-0.218 1.066-0.438 1.594-0.66 0.528-0.218 1.038-0.429 1.53-0.633 0.492-0.201 0.932-0.38 1.319-0.538zM229.299 238.969l1.689 1.635c-0.528 0.475-1.17 0.853-1.926 1.135-0.756 0.281-1.53 0.422-2.322 0.422v0c-0.809 0-1.571-0.155-2.284-0.464-0.711-0.306-1.33-0.719-1.858-1.24-0.528-0.517-0.946-1.127-1.256-1.831-0.306-0.704-0.459-1.451-0.459-2.243v0c0-0.791 0.153-1.539 0.459-2.243 0.31-0.704 0.728-1.319 1.256-1.846 0.528-0.528 1.138-0.946 1.831-1.256 0.697-0.306 1.441-0.459 2.232-0.459v0c1.249 0 2.334 0.373 3.256 1.118 0.925 0.749 1.59 1.731 1.994 2.945v0c-0.545 0.193-1.17 0.431-1.873 0.712-0.704 0.281-1.433 0.575-2.19 0.881-0.756 0.31-1.513 0.614-2.269 0.913-0.756 0.299-1.46 0.572-2.11 0.818v0c0.299 0.598 0.733 1.076 1.303 1.435 0.573 0.362 1.212 0.543 1.916 0.544v0c0.475 0 0.953-0.088 1.435-0.264 0.485-0.176 0.878-0.413 1.176-0.712zM229.088 234.114v0c-0.211-0.44-0.545-0.77-1.002-0.992-0.457-0.218-0.923-0.327-1.398-0.327v0c-0.51 0-0.981 0.097-1.415 0.29-0.429 0.193-0.802 0.452-1.118 0.776-0.317 0.327-0.568 0.702-0.755 1.124-0.183 0.422-0.274 0.853-0.274 1.292v0c0 0.088 0.004 0.149 0.01 0.185 0.011 0.035 0.016 0.062 0.016 0.079v0c0.457-0.176 0.953-0.375 1.488-0.596 0.538-0.218 1.071-0.438 1.599-0.66 0.528-0.218 1.038-0.429 1.53-0.633 0.492-0.201 0.932-0.38 1.319-0.538zM240.433 230.579l-0.501 2.902c-0.492 0-0.967 0.065-1.425 0.195-0.457 0.134-0.867 0.332-1.229 0.596-0.359 0.264-0.644 0.593-0.855 0.987-0.211 0.398-0.317 0.851-0.317 1.361v0 5.277h-2.242v-11.028h1.978c0.035 0.545 0.065 1.043 0.09 1.493 0.028 0.447 0.06 0.89 0.095 1.33v0c0.229-0.475 0.528-0.906 0.897-1.293 0.369-0.387 0.765-0.712 1.187-0.976 0.422-0.264 0.835-0.471 1.24-0.623 0.405-0.148 0.765-0.222 1.082-0.221z" fill="#f9cc0b" fill-rule="nonzero" stroke="none" stroke-width="1" stroke-linecap="butt" stroke-linejoin="miter" stroke-miterlimit="10" stroke-dasharray="" stroke-dashoffset="0" font-family="none" font-weight="none" font-size="none" text-anchor="none" style="mix-blend-mode: normal" data-fill-palette-color="secondary"></path></g></g><g transform="matrix(1,0,0,1,29.331764404296877,54.967760946204834)"><svg viewBox="0 0 316.416 132.41831416716064" height="132.41831416716064" width="316.416"><g><svg viewBox="0 0 316.416 132.41831416716064" height="132.41831416716064" width="316.416"><g><svg viewBox="0 0 316.416 132.41831416716064" height="132.41831416716064" width="316.416"><g><svg viewBox="0 0 316.416 132.41831416716064" height="132.41831416716064" width="316.416"><g><svg viewBox="0 0 316.416 132.41831416716064" height="132.41831416716064" width="316.416"><g><svg viewBox="0 0 316.416 132.41831416716064" height="132.41831416716064" width="316.416"><g transform="matrix(1,0,0,1,0,0)"><svg width="316.416" viewBox="5.25 -35 84.3499984741211 35.29999923706055" height="132.41831416716064" data-palette-color="#f9cc0b"><path d="M5.25 0L5.25-35 10.25-35 10.25-4.35 29.2-4.35 29.2 0 5.25 0ZM57.85-13.1Q57.85-12.55 57.75-11.65L57.75-11.65 36.25-11.65Q36.7-8.15 39.32-6.03 41.95-3.9 45.85-3.9L45.85-3.9Q50.6-3.9 53.5-7.1L53.5-7.1 56.15-4Q54.35-1.9 51.67-0.8 49 0.3 45.7 0.3L45.7 0.3Q41.5 0.3 38.25-1.43 35-3.15 33.22-6.25 31.45-9.35 31.45-13.25L31.45-13.25Q31.45-17.1 33.17-20.2 34.9-23.3 37.92-25.03 40.95-26.75 44.75-26.75L44.75-26.75Q48.55-26.75 51.52-25.03 54.5-23.3 56.17-20.2 57.85-17.1 57.85-13.1L57.85-13.1ZM44.75-22.7Q41.3-22.7 38.97-20.6 36.65-18.5 36.25-15.1L36.25-15.1 53.25-15.1Q52.85-18.45 50.52-20.58 48.2-22.7 44.75-22.7L44.75-22.7ZM75.85 0.3Q71.9 0.3 68.75-1.45 65.6-3.2 63.82-6.28 62.05-9.35 62.05-13.25L62.05-13.25Q62.05-17.15 63.82-20.23 65.6-23.3 68.75-25.03 71.9-26.75 75.85-26.75L75.85-26.75Q79.8-26.75 82.92-25.03 86.05-23.3 87.82-20.23 89.6-17.15 89.6-13.25L89.6-13.25Q89.6-9.35 87.82-6.28 86.05-3.2 82.92-1.45 79.8 0.3 75.85 0.3L75.85 0.3ZM75.85-3.9Q78.4-3.9 80.42-5.08 82.45-6.25 83.6-8.38 84.75-10.5 84.75-13.25L84.75-13.25Q84.75-16 83.6-18.13 82.45-20.25 80.42-21.4 78.4-22.55 75.85-22.55L75.85-22.55Q73.3-22.55 71.27-21.4 69.25-20.25 68.07-18.13 66.9-16 66.9-13.25L66.9-13.25Q66.9-10.5 68.07-8.38 69.25-6.25 71.27-5.08 73.3-3.9 75.85-3.9L75.85-3.9Z" opacity="1" transform="matrix(1,0,0,1,0,0)" fill="#f9cc0b" class="undefined-text-0" data-fill-palette-color="primary" id="text-0"></path></svg></g></svg></g></svg></g></svg></g></svg></g></svg></g></svg></g></svg></g><defs></defs></svg><rect width="375.07952880859375" height="242.3538360595703" fill="none" stroke="none" visibility="hidden"></rect></g></svg></g></svg>
